<?xml version="1.0" encoding="UTF-8" standalone="no"?>
<!DOCTYPE svg PUBLIC "-//W3C//DTD SVG 1.1//EN"
 "http://www.w3.org/Graphics/SVG/1.1/DTD/svg11.dtd">
<!-- Generated by graphviz version 14.1.2 (20260124.0452)
 -->
<!-- Title: n6705_ui.presentation.viewmodels.dashboard_vm.DashboardViewModel.disconnectDevice Pages: 1 -->
<!--zoomable 190 -->

<svg id="main" version="1.1" xmlns="http://www.w3.org/2000/svg" xmlns:xlink="http://www.w3.org/1999/xlink" xml:space="preserve" onload="init(evt)">

<style type="text/css"><![CDATA[
.node, .edge {opacity: 0.7;}
.node.selected, .edge.selected {opacity: 1;}
.edge:hover path { stroke: red; }
.edge:hover polygon { stroke: red; fill: red; }
]]></style>

<defs>
  <circle id="rim" cx="0" cy="0" r="7"/>
  <circle id="rim2" cx="0" cy="0" r="3.5"/>
  <g id="zoomPlus">
    <use xlink:href="#rim" fill="#404040"><set attributeName="fill" to="#808080" begin="zoomplus.mouseover" end="zoomplus.mouseout"/></use>
    <path d="M-4,0h8M0,-4v8" fill="none" stroke="white" stroke-width="1.5" pointer-events="none"/>
  </g>
  <g id="zoomMin">
    <use xlink:href="#rim" fill="#404040"><set attributeName="fill" to="#808080" begin="zoomminus.mouseover" end="zoomminus.mouseout"/></use>
    <path d="M-4,0h8" fill="none" stroke="white" stroke-width="1.5" pointer-events="none"/>
  </g>
  <g id="arrowUp" transform="translate(30 24)">
    <use xlink:href="#rim"/>
    <path pointer-events="none" fill="none" stroke="white" stroke-width="1.5" d="M0,-3.0v7 M-2.5,-0.5L0,-3.0L2.5,-0.5"/>
  </g>
  <g id="arrowRight" transform="rotate(90) translate(36 -43)">
    <use xlink:href="#rim"/>
    <path pointer-events="none" fill="none" stroke="white" stroke-width="1.5" d="M0,-3.0v7 M-2.5,-0.5L0,-3.0L2.5,-0.5"/>
  </g>
  <g id="arrowDown" transform="rotate(180) translate(-30 -48)">
    <use xlink:href="#rim"/>
    <path pointer-events="none" fill="none" stroke="white" stroke-width="1.5" d="M0,-3.0v7 M-2.5,-0.5L0,-3.0L2.5,-0.5"/>
  </g>
  <g id="arrowLeft" transform="rotate(270) translate(-36 17)">
    <use xlink:href="#rim"/>
    <path pointer-events="none" fill="none" stroke="white" stroke-width="1.5" d="M0,-3.0v7 M-2.5,-0.5L0,-3.0L2.5,-0.5"/>
  </g>
  <g id="resetDef">
    <use xlink:href="#rim2" fill="#404040"><set attributeName="fill" to="#808080" begin="reset.mouseover" end="reset.mouseout"/></use>
  </g>
</defs>
<script type="application/ecmascript">
var viewWidth = 513;
var viewHeight = 190;
var sectionId = 'dynsection-24';
</script>
<script type="application/ecmascript" xlink:href="svg.min.js"/>
<svg id="graph" class="graph">
<g id="viewport">
<title>n6705_ui.presentation.viewmodels.dashboard_vm.DashboardViewModel.disconnectDevice</title>
<!-- Node1 -->
<g id="Node000001" class="node">
<title>Node1</title>
<g id="a_Node000001"><a xlink:title=" ">
<polygon fill="#999999" stroke="#666666" points="214,-107 0,-107 0,-75 214,-75 214,-107"/>
<text xml:space="preserve" text-anchor="start" x="8" y="-93.5" font-family="Helvetica,sans-Serif" font-size="10.00">n6705_ui.presentation.viewmodels.dashboard</text>
<text xml:space="preserve" text-anchor="middle" x="107" y="-81.5" font-family="Helvetica,sans-Serif" font-size="10.00">_vm.DashboardViewModel.disconnectDevice</text>
</a>
</g>
</g>
<!-- Node2 -->
<g id="Node000002" class="node">
<title>Node2</title>
<g id="a_Node000002"><a xlink:href="classn6705__ui_1_1presentation_1_1viewmodels_1_1dashboard__vm_1_1DashboardViewModel.html#a9e3ff4705c728f91c2cd46d42a71b390" target="_top" xlink:title=" ">
<polygon fill="white" stroke="#666666" points="504.5,-182 250,-182 250,-150 504.5,-150 504.5,-182"/>
<text xml:space="preserve" text-anchor="start" x="258" y="-168.5" font-family="Helvetica,sans-Serif" font-size="10.00">n6705_ui.presentation.viewmodels.dashboard</text>
<text xml:space="preserve" text-anchor="middle" x="377.25" y="-156.5" font-family="Helvetica,sans-Serif" font-size="10.00">_vm.DashboardViewModel._safe_disconnect_internals</text>
</a>
</g>
</g>
<!-- Node1&#45;&gt;Node2 -->
<g id="edge1_Node000001_Node000002" class="edge">
<title>Node1&#45;&gt;Node2</title>
<g id="a_edge1_Node000001_Node000002"><a xlink:title=" ">
<path fill="none" stroke="#63b8ff" d="M149.75,-107.48C177.78,-118.1 215.71,-131.62 250,-141 257.7,-143.11 265.72,-145.11 273.81,-147.01"/>
<polygon fill="#63b8ff" stroke="#63b8ff" points="272.86,-150.38 283.38,-149.18 274.41,-143.55 272.86,-150.38"/>
</a>
</g>
</g>
<!-- Node3 -->
<g id="Node000003" class="node">
<title>Node3</title>
<g id="a_Node000003"><a xlink:href="classn6705__ui_1_1presentation_1_1viewmodels_1_1dashboard__vm_1_1DashboardViewModel.html#a1ff396687d4077bed491fb30af949d1c" target="_top" xlink:title=" ">
<polygon fill="white" stroke="#666666" points="484.25,-132 270.25,-132 270.25,-100 484.25,-100 484.25,-132"/>
<text xml:space="preserve" text-anchor="start" x="278.25" y="-118.5" font-family="Helvetica,sans-Serif" font-size="10.00">n6705_ui.presentation.viewmodels.dashboard</text>
<text xml:space="preserve" text-anchor="middle" x="377.25" y="-106.5" font-family="Helvetica,sans-Serif" font-size="10.00">_vm.DashboardViewModel._set_status</text>
</a>
</g>
</g>
<!-- Node1&#45;&gt;Node3 -->
<g id="edge2_Node000001_Node000003" class="edge">
<title>Node1&#45;&gt;Node3</title>
<g id="a_edge2_Node000001_Node000003"><a xlink:title=" ">
<path fill="none" stroke="#63b8ff" d="M214.4,-100.92C228.98,-102.27 244,-103.67 258.76,-105.05"/>
<polygon fill="#63b8ff" stroke="#63b8ff" points="258.19,-108.51 268.47,-105.95 258.83,-101.54 258.19,-108.51"/>
</a>
</g>
</g>
<!-- Node4 -->
<g id="Node000004" class="node">
<title>Node4</title>
<g id="a_Node000004"><a xlink:href="classn6705__ui_1_1presentation_1_1viewmodels_1_1dashboard__vm_1_1DashboardViewModel.html#a3e2f18d6d7b7e3bda863c1094fe4da38" target="_top" xlink:title=" ">
<polygon fill="white" stroke="#666666" points="484.25,-82 270.25,-82 270.25,-50 484.25,-50 484.25,-82"/>
<text xml:space="preserve" text-anchor="start" x="278.25" y="-68.5" font-family="Helvetica,sans-Serif" font-size="10.00">n6705_ui.presentation.viewmodels.dashboard</text>
<text xml:space="preserve" text-anchor="middle" x="377.25" y="-56.5" font-family="Helvetica,sans-Serif" font-size="10.00">_vm.DashboardViewModel.stopLogging</text>
</a>
</g>
</g>
<!-- Node1&#45;&gt;Node4 -->
<g id="edge3_Node000001_Node000004" class="edge">
<title>Node1&#45;&gt;Node4</title>
<g id="a_edge3_Node000001_Node000004"><a xlink:title=" ">
<path fill="none" stroke="#63b8ff" d="M214.4,-81.08C228.98,-79.73 244,-78.33 258.76,-76.95"/>
<polygon fill="#63b8ff" stroke="#63b8ff" points="258.83,-80.46 268.47,-76.05 258.19,-73.49 258.83,-80.46"/>
</a>
</g>
</g>
<!-- Node5 -->
<g id="Node000005" class="node">
<title>Node5</title>
<g id="a_Node000005"><a xlink:href="classn6705__ui_1_1presentation_1_1viewmodels_1_1dashboard__vm_1_1DashboardViewModel.html#a00204cf65b628307b96281b337bd388a" target="_top" xlink:title=" ">
<polygon fill="white" stroke="#666666" points="484.25,-32 270.25,-32 270.25,0 484.25,0 484.25,-32"/>
<text xml:space="preserve" text-anchor="start" x="278.25" y="-18.5" font-family="Helvetica,sans-Serif" font-size="10.00">n6705_ui.presentation.viewmodels.dashboard</text>
<text xml:space="preserve" text-anchor="middle" x="377.25" y="-6.5" font-family="Helvetica,sans-Serif" font-size="10.00">_vm.DashboardViewModel.stopMonitoring</text>
</a>
</g>
</g>
<!-- Node1&#45;&gt;Node5 -->
<g id="edge4_Node000001_Node000005" class="edge">
<title>Node1&#45;&gt;Node5</title>
<g id="a_edge4_Node000001_Node000005"><a xlink:title=" ">
<path fill="none" stroke="#63b8ff" d="M149.75,-74.52C177.78,-63.9 215.71,-50.38 250,-41 257.7,-38.89 265.72,-36.89 273.81,-34.99"/>
<polygon fill="#63b8ff" stroke="#63b8ff" points="274.41,-38.45 283.38,-32.82 272.86,-31.62 274.41,-38.45"/>
</a>
</g>
</g>
</g>
</svg>

<g id="navigator" transform="translate(0 0)" fill="#404254">
  <rect fill="#f2f5e9" fill-opacity="0.5" stroke="#606060" stroke-width=".5" x="0" y="0" width="60" height="60"/>
  <use id="zoomplus" xlink:href="#zoomPlus" x="17" y="9" onmousedown="handleZoom(evt,'in')"/>
  <use id="zoomminus" xlink:href="#zoomMin" x="42" y="9" onmousedown="handleZoom(evt,'out')"/>
  <use id="reset" xlink:href="#resetDef" x="30" y="36" onmousedown="handleReset()"/>
   <use id="arrowup" xlink:href="#arrowUp" x="0" y="0" onmousedown="handlePan(0,-1)"/>
  <use id="arrowright" xlink:href="#arrowRight" x="0" y="0" onmousedown="handlePan(1,0)"/>
  <use id="arrowdown" xlink:href="#arrowDown" x="0" y="0" onmousedown="handlePan(0,1)"/>
  <use id="arrowleft" xlink:href="#arrowLeft" x="0" y="0" onmousedown="handlePan(-1,0)"/>
</g>
<svg viewBox="0 0 15 15" width="100%" height="30px" preserveAspectRatio="xMaxYMin meet">
 <g id="arrow_out" transform="scale(0.3 0.3)">
  <a xlink:href="classn6705__ui_1_1presentation_1_1viewmodels_1_1dashboard__vm_1_1DashboardViewModel_aa62e2a12862b453e2a6672b72dd081fc_cgraph_org.svg" target="_base">
   <rect id="button" ry="5" rx="5" y="6" x="6" height="38" width="38"
        fill="#f2f5e9" fill-opacity="0.5" stroke="#606060" stroke-width="1.0"/>
   <path id="arrow"
     d="M 11.500037,31.436501 C 11.940474,20.09759 22.043105,11.32322 32.158766,21.979434 L 37.068811,17.246167 C 37.068811,17.246167 37.088388,32 37.088388,32 L 22.160133,31.978069 C 22.160133,31.978069 26.997745,27.140456 26.997745,27.140456 C 18.528582,18.264221 13.291696,25.230495 11.500037,31.436501 z"
     style="fill:#404040;"/>
  </a>
 </g>
</svg>

<style type='text/css'>
<![CDATA[
[data-mouse-over-selected='false'] { opacity: 0.7; }
[data-mouse-over-selected='true']  { opacity: 1.0; }
]]>
</style>
<script type="application/ecmascript"><![CDATA[
document.addEventListener('DOMContentLoaded', (event) => {
  highlightEdges();
  highlightAdjacentNodes();
});
]]></script>
</svg>
