<?xml version="1.0" encoding="UTF-8" standalone="no"?>
<!DOCTYPE svg PUBLIC "-//W3C//DTD SVG 1.1//EN"
 "http://www.w3.org/Graphics/SVG/1.1/DTD/svg11.dtd">
<!-- Generated by graphviz version 14.1.2 (20260124.0452)
 -->
<!-- Title: n6705_ui.presentation.viewmodels.dashboard_vm.DashboardViewModel._set_status Pages: 1 -->
<svg width="748pt" height="477pt"
 viewBox="0.00 0.00 748.00 477.00" xmlns="http://www.w3.org/2000/svg" xmlns:xlink="http://www.w3.org/1999/xlink">
<g id="graph0" class="graph" transform="scale(1 1) rotate(0) translate(4 473.06)">
<title>n6705_ui.presentation.viewmodels.dashboard_vm.DashboardViewModel._set_status</title>
<!-- Node1 -->
<g id="Node000001" class="node">
<title>Node1</title>
<g id="a_Node000001"><a xlink:title=" ">
<polygon fill="#999999" stroke="#666666" points="740.25,-250.05 526.25,-250.05 526.25,-218.05 740.25,-218.05 740.25,-250.05"/>
<text xml:space="preserve" text-anchor="start" x="534.25" y="-236.55" font-family="Helvetica,sans-Serif" font-size="10.00">n6705_ui.presentation.viewmodels.dashboard</text>
<text xml:space="preserve" text-anchor="middle" x="633.25" y="-224.55" font-family="Helvetica,sans-Serif" font-size="10.00">_vm.DashboardViewModel._set_status</text>
</a>
</g>
</g>
<!-- Node2 -->
<g id="Node000002" class="node">
<title>Node2</title>
<g id="a_Node000002"><a xlink:href="classn6705__ui_1_1presentation_1_1viewmodels_1_1dashboard__vm_1_1DashboardViewModel.html#adc4d9603b798ac2141c8796dd4cf7f0c" target="_top" xlink:title=" ">
<polygon fill="white" stroke="#666666" points="214,-295.05 0,-295.05 0,-251.05 214,-251.05 214,-295.05"/>
<text xml:space="preserve" text-anchor="start" x="8" y="-281.55" font-family="Helvetica,sans-Serif" font-size="10.00">n6705_ui.presentation.viewmodels.dashboard</text>
<text xml:space="preserve" text-anchor="start" x="8" y="-269.55" font-family="Helvetica,sans-Serif" font-size="10.00">_vm.DashboardViewModel._on_connect</text>
<text xml:space="preserve" text-anchor="middle" x="107" y="-257.55" font-family="Helvetica,sans-Serif" font-size="10.00">_worker_done</text>
</a>
</g>
</g>
<!-- Node1&#45;&gt;Node2 -->
<g id="edge1_Node000001_Node000002" class="edge">
<title>Node1&#45;&gt;Node2</title>
<g id="a_edge1_Node000001_Node000002"><a xlink:title=" ">
<path fill="none" stroke="#63b8ff" d="M622.59,-261.07C604.65,-306.62 561.41,-397.31 490.25,-434.05 395.38,-483.05 347.32,-477.98 250,-434.05 186.31,-405.3 139.74,-332.3 119.38,-295.29"/>
<polygon fill="#63b8ff" stroke="#63b8ff" points="625.78,-262.53 626.07,-251.94 619.24,-260.04 625.78,-262.53"/>
</a>
</g>
</g>
<!-- Node3 -->
<g id="Node000003" class="node">
<title>Node3</title>
<g id="a_Node000003"><a xlink:href="classn6705__ui_1_1presentation_1_1viewmodels_1_1dashboard__vm_1_1DashboardViewModel.html#ad1e1a2bd83544273fd81468e86e67b1d" target="_top" xlink:title=" ">
<polygon fill="white" stroke="#666666" points="490.25,-425.05 250,-425.05 250,-393.05 490.25,-393.05 490.25,-425.05"/>
<text xml:space="preserve" text-anchor="start" x="258" y="-411.55" font-family="Helvetica,sans-Serif" font-size="10.00">n6705_ui.presentation.viewmodels.dashboard</text>
<text xml:space="preserve" text-anchor="middle" x="370.12" y="-399.55" font-family="Helvetica,sans-Serif" font-size="10.00">_vm.DashboardViewModel._on_log_plot_load_done</text>
</a>
</g>
</g>
<!-- Node1&#45;&gt;Node3 -->
<g id="edge2_Node000001_Node000003" class="edge">
<title>Node1&#45;&gt;Node3</title>
<g id="a_edge2_Node000001_Node000003"><a xlink:title=" ">
<path fill="none" stroke="#63b8ff" d="M615.68,-259.49C592.1,-293.52 545.52,-353.15 490.25,-384.05 484.44,-387.3 478.26,-390.13 471.88,-392.59"/>
<polygon fill="#63b8ff" stroke="#63b8ff" points="618.41,-261.7 621.13,-251.46 612.62,-257.77 618.41,-261.7"/>
</a>
</g>
</g>
<!-- Node4 -->
<g id="Node000004" class="node">
<title>Node4</title>
<g id="a_Node000004"><a xlink:href="classn6705__ui_1_1presentation_1_1viewmodels_1_1dashboard__vm_1_1DashboardViewModel.html#a39e250f1936ca9ce8b18815f01719f80" target="_top" xlink:title=" ">
<polygon fill="white" stroke="#666666" points="477.12,-375.05 263.12,-375.05 263.12,-343.05 477.12,-343.05 477.12,-375.05"/>
<text xml:space="preserve" text-anchor="start" x="271.12" y="-361.55" font-family="Helvetica,sans-Serif" font-size="10.00">n6705_ui.presentation.viewmodels.dashboard</text>
<text xml:space="preserve" text-anchor="middle" x="370.12" y="-349.55" font-family="Helvetica,sans-Serif" font-size="10.00">_vm.DashboardViewModel._on_polling_error</text>
</a>
</g>
</g>
<!-- Node1&#45;&gt;Node4 -->
<g id="edge3_Node000001_Node000004" class="edge">
<title>Node1&#45;&gt;Node4</title>
<g id="a_edge3_Node000001_Node000004"><a xlink:title=" ">
<path fill="none" stroke="#63b8ff" d="M605.94,-257.61C578.86,-280.59 534.47,-314.82 490.25,-334.05 482.79,-337.3 474.88,-340.13 466.82,-342.61"/>
<polygon fill="#63b8ff" stroke="#63b8ff" points="608.01,-260.45 613.3,-251.27 603.44,-255.15 608.01,-260.45"/>
</a>
</g>
</g>
<!-- Node5 -->
<g id="Node000005" class="node">
<title>Node5</title>
<g id="a_Node000005"><a xlink:href="classn6705__ui_1_1presentation_1_1viewmodels_1_1dashboard__vm_1_1DashboardViewModel.html#af2ead5c577602d49a6593e120f5889b1" target="_top" xlink:title=" ">
<polygon fill="white" stroke="#666666" points="488.38,-325.05 251.88,-325.05 251.88,-293.05 488.38,-293.05 488.38,-325.05"/>
<text xml:space="preserve" text-anchor="start" x="259.88" y="-311.55" font-family="Helvetica,sans-Serif" font-size="10.00">n6705_ui.presentation.viewmodels.dashboard</text>
<text xml:space="preserve" text-anchor="middle" x="370.12" y="-299.55" font-family="Helvetica,sans-Serif" font-size="10.00">_vm.DashboardViewModel.applyChannelSetpoints</text>
</a>
</g>
</g>
<!-- Node1&#45;&gt;Node5 -->
<g id="edge4_Node000001_Node000005" class="edge">
<title>Node1&#45;&gt;Node5</title>
<g id="a_edge4_Node000001_Node000005"><a xlink:title=" ">
<path fill="none" stroke="#63b8ff" d="M579.57,-254.47C553.04,-264.27 520.23,-275.67 490.25,-284.05 479.36,-287.1 467.82,-289.96 456.38,-292.59"/>
<polygon fill="#63b8ff" stroke="#63b8ff" points="580.59,-257.82 588.73,-251.05 578.14,-251.26 580.59,-257.82"/>
</a>
</g>
</g>
<!-- Node6 -->
<g id="Node000006" class="node">
<title>Node6</title>
<g id="a_Node000006"><a xlink:href="classn6705__ui_1_1presentation_1_1viewmodels_1_1dashboard__vm_1_1DashboardViewModel.html#af5af94d288641dc7396b94d0f1a08979" target="_top" xlink:title=" ">
<polygon fill="white" stroke="#666666" points="477.12,-275.05 263.12,-275.05 263.12,-243.05 477.12,-243.05 477.12,-275.05"/>
<text xml:space="preserve" text-anchor="start" x="271.12" y="-261.55" font-family="Helvetica,sans-Serif" font-size="10.00">n6705_ui.presentation.viewmodels.dashboard</text>
<text xml:space="preserve" text-anchor="middle" x="370.12" y="-249.55" font-family="Helvetica,sans-Serif" font-size="10.00">_vm.DashboardViewModel.connectDevice</text>
</a>
</g>
</g>
<!-- Node1&#45;&gt;Node6 -->
<g id="edge5_Node000001_Node000006" class="edge">
<title>Node1&#45;&gt;Node6</title>
<g id="a_edge5_Node000001_Node000006"><a xlink:title=" ">
<path fill="none" stroke="#63b8ff" d="M514.65,-245.31C502.19,-246.51 489.56,-247.71 477.24,-248.89"/>
<polygon fill="#63b8ff" stroke="#63b8ff" points="514.91,-248.8 524.53,-244.37 514.25,-241.83 514.91,-248.8"/>
</a>
</g>
</g>
<!-- Node7 -->
<g id="Node000007" class="node">
<title>Node7</title>
<g id="a_Node000007"><a xlink:href="classn6705__ui_1_1presentation_1_1viewmodels_1_1dashboard__vm_1_1DashboardViewModel.html#aa62e2a12862b453e2a6672b72dd081fc" target="_top" xlink:title=" ">
<polygon fill="white" stroke="#666666" points="477.12,-225.05 263.12,-225.05 263.12,-193.05 477.12,-193.05 477.12,-225.05"/>
<text xml:space="preserve" text-anchor="start" x="271.12" y="-211.55" font-family="Helvetica,sans-Serif" font-size="10.00">n6705_ui.presentation.viewmodels.dashboard</text>
<text xml:space="preserve" text-anchor="middle" x="370.12" y="-199.55" font-family="Helvetica,sans-Serif" font-size="10.00">_vm.DashboardViewModel.disconnectDevice</text>
</a>
</g>
</g>
<!-- Node1&#45;&gt;Node7 -->
<g id="edge6_Node000001_Node000007" class="edge">
<title>Node1&#45;&gt;Node7</title>
<g id="a_edge6_Node000001_Node000007"><a xlink:title=" ">
<path fill="none" stroke="#63b8ff" d="M514.65,-222.79C502.19,-221.6 489.56,-220.39 477.24,-219.21"/>
<polygon fill="#63b8ff" stroke="#63b8ff" points="514.25,-226.27 524.53,-223.74 514.91,-219.3 514.25,-226.27"/>
</a>
</g>
</g>
<!-- Node8 -->
<g id="Node000008" class="node">
<title>Node8</title>
<g id="a_Node000008"><a xlink:href="classn6705__ui_1_1presentation_1_1viewmodels_1_1dashboard__vm_1_1DashboardViewModel.html#ab23e8d25d98af2e986094b587e457ba9" target="_top" xlink:title=" ">
<polygon fill="white" stroke="#666666" points="477.12,-175.05 263.12,-175.05 263.12,-143.05 477.12,-143.05 477.12,-175.05"/>
<text xml:space="preserve" text-anchor="start" x="271.12" y="-161.55" font-family="Helvetica,sans-Serif" font-size="10.00">n6705_ui.presentation.viewmodels.dashboard</text>
<text xml:space="preserve" text-anchor="middle" x="370.12" y="-149.55" font-family="Helvetica,sans-Serif" font-size="10.00">_vm.DashboardViewModel.loadLogFiles</text>
</a>
</g>
</g>
<!-- Node1&#45;&gt;Node8 -->
<g id="edge7_Node000001_Node000008" class="edge">
<title>Node1&#45;&gt;Node8</title>
<g id="a_edge7_Node000001_Node000008"><a xlink:title=" ">
<path fill="none" stroke="#63b8ff" d="M579.57,-213.64C553.04,-203.84 520.23,-192.44 490.25,-184.05 479.36,-181.01 467.82,-178.14 456.38,-175.52"/>
<polygon fill="#63b8ff" stroke="#63b8ff" points="578.14,-216.84 588.73,-217.06 580.59,-210.28 578.14,-216.84"/>
</a>
</g>
</g>
<!-- Node9 -->
<g id="Node000009" class="node">
<title>Node9</title>
<g id="a_Node000009"><a xlink:href="classn6705__ui_1_1presentation_1_1viewmodels_1_1dashboard__vm_1_1DashboardViewModel.html#a960d38ebcbf7c3a46933d12cc60b7b07" target="_top" xlink:title=" ">
<polygon fill="white" stroke="#666666" points="477.5,-125.05 262.75,-125.05 262.75,-93.05 477.5,-93.05 477.5,-125.05"/>
<text xml:space="preserve" text-anchor="start" x="270.75" y="-111.55" font-family="Helvetica,sans-Serif" font-size="10.00">n6705_ui.presentation.viewmodels.dashboard</text>
<text xml:space="preserve" text-anchor="middle" x="370.12" y="-99.55" font-family="Helvetica,sans-Serif" font-size="10.00">_vm.DashboardViewModel.setChannelOutput</text>
</a>
</g>
</g>
<!-- Node1&#45;&gt;Node9 -->
<g id="edge8_Node000001_Node000009" class="edge">
<title>Node1&#45;&gt;Node9</title>
<g id="a_edge8_Node000001_Node000009"><a xlink:title=" ">
<path fill="none" stroke="#63b8ff" d="M605.94,-210.5C578.86,-187.51 534.47,-153.28 490.25,-134.05 482.79,-130.81 474.88,-127.97 466.82,-125.5"/>
<polygon fill="#63b8ff" stroke="#63b8ff" points="603.44,-212.95 613.3,-216.83 608.01,-207.65 603.44,-212.95"/>
</a>
</g>
</g>
<!-- Node10 -->
<g id="Node000010" class="node">
<title>Node10</title>
<g id="a_Node000010"><a xlink:href="classn6705__ui_1_1presentation_1_1viewmodels_1_1dashboard__vm_1_1DashboardViewModel.html#a5d09f94407e353df839d8bed78bfcf72" target="_top" xlink:title=" ">
<polygon fill="white" stroke="#666666" points="214,-53.05 0,-53.05 0,-21.05 214,-21.05 214,-53.05"/>
<text xml:space="preserve" text-anchor="start" x="8" y="-39.55" font-family="Helvetica,sans-Serif" font-size="10.00">n6705_ui.presentation.viewmodels.dashboard</text>
<text xml:space="preserve" text-anchor="middle" x="107" y="-27.55" font-family="Helvetica,sans-Serif" font-size="10.00">_vm.DashboardViewModel.startLogging</text>
</a>
</g>
</g>
<!-- Node1&#45;&gt;Node10 -->
<g id="edge9_Node000001_Node000010" class="edge">
<title>Node1&#45;&gt;Node10</title>
<g id="a_edge9_Node000001_Node000010"><a xlink:title=" ">
<path fill="none" stroke="#63b8ff" d="M622.59,-207.04C604.65,-161.49 561.41,-70.8 490.25,-34.05 386.62,19.46 245.12,-1.91 166.59,-20.58"/>
<polygon fill="#63b8ff" stroke="#63b8ff" points="619.24,-208.07 626.07,-216.17 625.78,-205.58 619.24,-208.07"/>
</a>
</g>
</g>
<!-- Node11 -->
<g id="Node000011" class="node">
<title>Node11</title>
<g id="a_Node000011"><a xlink:href="classn6705__ui_1_1presentation_1_1viewmodels_1_1dashboard__vm_1_1DashboardViewModel.html#a31478dad124aa48515300d105464e58b" target="_top" xlink:title=" ">
<polygon fill="white" stroke="#666666" points="477.12,-75.05 263.12,-75.05 263.12,-43.05 477.12,-43.05 477.12,-75.05"/>
<text xml:space="preserve" text-anchor="start" x="271.12" y="-61.55" font-family="Helvetica,sans-Serif" font-size="10.00">n6705_ui.presentation.viewmodels.dashboard</text>
<text xml:space="preserve" text-anchor="middle" x="370.12" y="-49.55" font-family="Helvetica,sans-Serif" font-size="10.00">_vm.DashboardViewModel.startMonitoring</text>
</a>
</g>
</g>
<!-- Node1&#45;&gt;Node11 -->
<g id="edge10_Node000001_Node000011" class="edge">
<title>Node1&#45;&gt;Node11</title>
<g id="a_edge10_Node000001_Node000011"><a xlink:title=" ">
<path fill="none" stroke="#63b8ff" d="M615.68,-208.62C592.1,-174.59 545.52,-114.95 490.25,-84.05 484.44,-80.8 478.26,-77.98 471.88,-75.52"/>
<polygon fill="#63b8ff" stroke="#63b8ff" points="612.62,-210.33 621.13,-216.64 618.41,-206.4 612.62,-210.33"/>
</a>
</g>
</g>
<!-- Node11&#45;&gt;Node2 -->
<g id="edge11_Node000011_Node000002" class="edge">
<title>Node11&#45;&gt;Node2</title>
<g id="a_edge11_Node000011_Node000002"><a xlink:title=" ">
<path fill="none" stroke="#63b8ff" d="M255.85,-80.59C253.86,-81.69 251.91,-82.84 250,-84.05 183.86,-126.13 137.37,-210.63 118.02,-250.83"/>
<polygon fill="#63b8ff" stroke="#63b8ff" points="257.35,-83.75 264.78,-76.2 254.26,-77.47 257.35,-83.75"/>
</a>
</g>
</g>
<!-- Node11&#45;&gt;Node10 -->
<g id="edge12_Node000011_Node000010" class="edge">
<title>Node11&#45;&gt;Node10</title>
<g id="a_edge12_Node000011_Node000010"><a xlink:title=" ">
<path fill="none" stroke="#63b8ff" d="M251.53,-49.15C239.06,-48.1 226.44,-47.03 214.12,-45.99"/>
<polygon fill="#63b8ff" stroke="#63b8ff" points="251.15,-52.63 261.41,-49.98 251.74,-45.65 251.15,-52.63"/>
</a>
</g>
</g>
</g>
</svg>
