<?xml version="1.0" encoding="UTF-8" standalone="no"?>
<!DOCTYPE svg PUBLIC "-//W3C//DTD SVG 1.1//EN"
 "http://www.w3.org/Graphics/SVG/1.1/DTD/svg11.dtd">
<!-- Generated by graphviz version 14.1.2 (20260124.0452)
 -->
<!-- Title: n6705_ui.logging.consumption_logger._AccumulatorState Pages: 1 -->
<svg width="218pt" height="300pt"
 viewBox="0.00 0.00 218.00 300.00" xmlns="http://www.w3.org/2000/svg" xmlns:xlink="http://www.w3.org/1999/xlink">
<g id="graph0" class="graph" transform="scale(1 1) rotate(0) translate(4 296)">
<title>n6705_ui.logging.consumption_logger._AccumulatorState</title>
<!-- Node1 -->
<g id="Node000001" class="node">
<title>Node1</title>
<g id="a_Node000001"><a xlink:title=" ">
<polygon fill="#999999" stroke="none" points="143.38,-64 4.12,-64 4.12,0 143.38,0 143.38,-64"/>
<text xml:space="preserve" text-anchor="start" x="8.12" y="-50.5" font-family="Helvetica,sans-Serif" font-size="10.00">n6705_ui.logging.consumption</text>
<text xml:space="preserve" text-anchor="start" x="14.88" y="-38.5" font-family="Helvetica,sans-Serif" font-size="10.00">_logger._AccumulatorState</text>
<text xml:space="preserve" text-anchor="start" x="72.25" y="-22.5" font-family="Helvetica,sans-Serif" font-size="10.00"> </text>
<text xml:space="preserve" text-anchor="start" x="72.25" y="-6.5" font-family="Helvetica,sans-Serif" font-size="10.00"> </text>
<polygon fill="#666666" stroke="#666666" points="4.12,-34 4.12,-34 143.38,-34 143.38,-34 4.12,-34"/>
<polygon fill="#666666" stroke="#666666" points="4.12,-18 4.12,-18 143.38,-18 143.38,-18 4.12,-18"/>
<polygon fill="none" stroke="#666666" points="4.12,0 4.12,-64 143.38,-64 143.38,0 4.12,0"/>
</a>
</g>
</g>
<!-- Node2 -->
<g id="Node000002" class="node">
<title>Node2</title>
<g id="a_Node000002"><a xlink:title=" ">
<polygon fill="white" stroke="none" points="45.5,-170 0,-170 0,-118 45.5,-118 45.5,-170"/>
<text xml:space="preserve" text-anchor="start" x="4" y="-156.5" font-family="Helvetica,sans-Serif" font-size="10.00">datetime</text>
<text xml:space="preserve" text-anchor="start" x="21.25" y="-140.5" font-family="Helvetica,sans-Serif" font-size="10.00"> </text>
<text xml:space="preserve" text-anchor="start" x="21.25" y="-124.5" font-family="Helvetica,sans-Serif" font-size="10.00"> </text>
<polygon fill="#666666" stroke="#666666" points="0,-152 0,-152 45.5,-152 45.5,-152 0,-152"/>
<polygon fill="#666666" stroke="#666666" points="0,-136 0,-136 45.5,-136 45.5,-136 0,-136"/>
<polygon fill="none" stroke="#666666" points="0,-118 0,-170 45.5,-170 45.5,-118 0,-118"/>
</a>
</g>
</g>
<!-- Node2&#45;&gt;Node1 -->
<g id="edge1_Node000001_Node000002" class="edge">
<title>Node2&#45;&gt;Node1</title>
<g id="a_edge1_Node000001_Node000002"><a xlink:title=" ">
<path fill="none" stroke="#63b8ff" d="M22.34,-118.04C22.98,-106.63 24.96,-93.18 30,-82 31.16,-79.42 32.51,-76.89 33.99,-74.41"/>
<polygon fill="none" stroke="#63b8ff" points="33.9,-74.54 34.03,-67.33 40.73,-64.68 40.6,-71.89 33.9,-74.54"/>
</a>
</g>
<text xml:space="preserve" text-anchor="start" x="33" y="-87.5" font-family="Helvetica,sans-Serif" font-size="10.00" fill="grey">+last_timestamp</text>
</g>
<!-- Node3 -->
<g id="Node000003" class="node">
<title>Node3</title>
<g id="a_Node000003"><a xlink:href="classn6705__ui_1_1models_1_1ChannelTotals.html" target="_top" xlink:title=" ">
<polygon fill="white" stroke="none" points="210.12,-170 63.38,-170 63.38,-118 210.12,-118 210.12,-170"/>
<text xml:space="preserve" text-anchor="start" x="67.38" y="-156.5" font-family="Helvetica,sans-Serif" font-size="10.00">n6705_ui.models.ChannelTotals</text>
<text xml:space="preserve" text-anchor="start" x="135.25" y="-140.5" font-family="Helvetica,sans-Serif" font-size="10.00"> </text>
<text xml:space="preserve" text-anchor="start" x="135.25" y="-124.5" font-family="Helvetica,sans-Serif" font-size="10.00"> </text>
<polygon fill="#666666" stroke="#666666" points="63.38,-152 63.38,-152 210.12,-152 210.12,-152 63.38,-152"/>
<polygon fill="#666666" stroke="#666666" points="63.38,-136 63.38,-136 210.12,-136 210.12,-136 63.38,-136"/>
<polygon fill="none" stroke="#666666" points="63.38,-118 63.38,-170 210.12,-170 210.12,-118 63.38,-118"/>
</a>
</g>
</g>
<!-- Node3&#45;&gt;Node1 -->
<g id="edge2_Node000001_Node000003" class="edge">
<title>Node3&#45;&gt;Node1</title>
<g id="a_edge2_Node000001_Node000003"><a xlink:title=" ">
<path fill="none" stroke="#63b8ff" d="M126.61,-118.12C121.69,-106.85 115.41,-93.49 108.75,-82 107.32,-79.54 105.8,-77.05 104.23,-74.56"/>
<polygon fill="none" stroke="#63b8ff" points="104.21,-74.53 97.56,-71.74 97.57,-64.53 104.22,-67.31 104.21,-74.53"/>
</a>
</g>
<text xml:space="preserve" text-anchor="start" x="121.23" y="-87.5" font-family="Helvetica,sans-Serif" font-size="10.00" fill="grey">+totals</text>
</g>
<!-- Node4 -->
<g id="Node000004" class="node">
<title>Node4</title>
<g id="a_Node000004"><a xlink:title=" ">
<polygon fill="white" stroke="none" points="150.12,-292 123.38,-292 123.38,-240 150.12,-240 150.12,-292"/>
<text xml:space="preserve" text-anchor="start" x="127.38" y="-278.5" font-family="Helvetica,sans-Serif" font-size="10.00">float</text>
<text xml:space="preserve" text-anchor="start" x="135.25" y="-262.5" font-family="Helvetica,sans-Serif" font-size="10.00"> </text>
<text xml:space="preserve" text-anchor="start" x="135.25" y="-246.5" font-family="Helvetica,sans-Serif" font-size="10.00"> </text>
<polygon fill="#666666" stroke="#666666" points="123.38,-274 123.38,-274 150.12,-274 150.12,-274 123.38,-274"/>
<polygon fill="#666666" stroke="#666666" points="123.38,-258 123.38,-258 150.12,-258 150.12,-258 123.38,-258"/>
<polygon fill="none" stroke="#666666" points="123.38,-240 123.38,-292 150.12,-292 150.12,-240 123.38,-240"/>
</a>
</g>
</g>
<!-- Node4&#45;&gt;Node3 -->
<g id="edge3_Node000003_Node000004" class="edge">
<title>Node4&#45;&gt;Node3</title>
<g id="a_edge3_Node000003_Node000004"><a xlink:title=" ">
<path fill="none" stroke="#63b8ff" d="M136.75,-240.14C136.75,-223.56 136.75,-201.47 136.75,-182.74"/>
<polygon fill="none" stroke="#63b8ff" points="136.75,-182.73 132.75,-176.73 136.75,-170.73 140.75,-176.73 136.75,-182.73"/>
</a>
</g>
<text xml:space="preserve" text-anchor="start" x="139.75" y="-209.5" font-family="Helvetica,sans-Serif" font-size="10.00" fill="grey">+charge_ah</text>
<text xml:space="preserve" text-anchor="start" x="139.75" y="-193.5" font-family="Helvetica,sans-Serif" font-size="10.00" fill="grey">+energy_wh</text>
</g>
</g>
</svg>
