<?xml version="1.0" encoding="UTF-8" standalone="no"?>
<!DOCTYPE svg PUBLIC "-//W3C//DTD SVG 1.1//EN"
 "http://www.w3.org/Graphics/SVG/1.1/DTD/svg11.dtd">
<!-- Generated by graphviz version 14.1.2 (20260124.0452)
 -->
<!-- Title: n6705_ui.device.n6705._parse_single_float Pages: 1 -->
<!--zoomable 462 -->

<svg id="main" version="1.1" xmlns="http://www.w3.org/2000/svg" xmlns:xlink="http://www.w3.org/1999/xlink" xml:space="preserve" onload="init(evt)">

<style type="text/css"><![CDATA[
.node, .edge {opacity: 0.7;}
.node.selected, .edge.selected {opacity: 1;}
.edge:hover path { stroke: red; }
.edge:hover polygon { stroke: red; fill: red; }
]]></style>

<defs>
  <circle id="rim" cx="0" cy="0" r="7"/>
  <circle id="rim2" cx="0" cy="0" r="3.5"/>
  <g id="zoomPlus">
    <use xlink:href="#rim" fill="#404040"><set attributeName="fill" to="#808080" begin="zoomplus.mouseover" end="zoomplus.mouseout"/></use>
    <path d="M-4,0h8M0,-4v8" fill="none" stroke="white" stroke-width="1.5" pointer-events="none"/>
  </g>
  <g id="zoomMin">
    <use xlink:href="#rim" fill="#404040"><set attributeName="fill" to="#808080" begin="zoomminus.mouseover" end="zoomminus.mouseout"/></use>
    <path d="M-4,0h8" fill="none" stroke="white" stroke-width="1.5" pointer-events="none"/>
  </g>
  <g id="arrowUp" transform="translate(30 24)">
    <use xlink:href="#rim"/>
    <path pointer-events="none" fill="none" stroke="white" stroke-width="1.5" d="M0,-3.0v7 M-2.5,-0.5L0,-3.0L2.5,-0.5"/>
  </g>
  <g id="arrowRight" transform="rotate(90) translate(36 -43)">
    <use xlink:href="#rim"/>
    <path pointer-events="none" fill="none" stroke="white" stroke-width="1.5" d="M0,-3.0v7 M-2.5,-0.5L0,-3.0L2.5,-0.5"/>
  </g>
  <g id="arrowDown" transform="rotate(180) translate(-30 -48)">
    <use xlink:href="#rim"/>
    <path pointer-events="none" fill="none" stroke="white" stroke-width="1.5" d="M0,-3.0v7 M-2.5,-0.5L0,-3.0L2.5,-0.5"/>
  </g>
  <g id="arrowLeft" transform="rotate(270) translate(-36 17)">
    <use xlink:href="#rim"/>
    <path pointer-events="none" fill="none" stroke="white" stroke-width="1.5" d="M0,-3.0v7 M-2.5,-0.5L0,-3.0L2.5,-0.5"/>
  </g>
  <g id="resetDef">
    <use xlink:href="#rim2" fill="#404040"><set attributeName="fill" to="#808080" begin="reset.mouseover" end="reset.mouseout"/></use>
  </g>
</defs>
<script type="application/ecmascript">
var viewWidth = 330;
var viewHeight = 462;
var sectionId = 'dynsection-2';
</script>
<script type="application/ecmascript" xlink:href="svg.min.js"/>
<svg id="graph" class="graph">
<g id="viewport">
<title>n6705_ui.device.n6705._parse_single_float</title>
<!-- Node1 -->
<g id="Node000001" class="node">
<title>Node1</title>
<g id="a_Node000001"><a xlink:title=" ">
<polygon fill="#999999" stroke="#666666" points="321.5,-243 202.75,-243 202.75,-211 321.5,-211 321.5,-243"/>
<text xml:space="preserve" text-anchor="start" x="210.75" y="-229.5" font-family="Helvetica,sans-Serif" font-size="10.00">n6705_ui.device.n6705.</text>
<text xml:space="preserve" text-anchor="middle" x="262.12" y="-217.5" font-family="Helvetica,sans-Serif" font-size="10.00">_parse_single_float</text>
</a>
</g>
</g>
<!-- Node2 -->
<g id="Node000002" class="node">
<title>Node2</title>
<g id="a_Node000002"><a xlink:href="classn6705__ui_1_1device_1_1n6705_1_1N6705PowerAnalyzer.html#a6f2c62db341f1e08fc98f83c5500a75c" target="_top" xlink:title=" ">
<polygon fill="white" stroke="#666666" points="166.75,-454 0,-454 0,-422 166.75,-422 166.75,-454"/>
<text xml:space="preserve" text-anchor="start" x="8" y="-440.5" font-family="Helvetica,sans-Serif" font-size="10.00">n6705_ui.device.n6705.N6705</text>
<text xml:space="preserve" text-anchor="middle" x="83.38" y="-428.5" font-family="Helvetica,sans-Serif" font-size="10.00">PowerAnalyzer.get_channel_count</text>
</a>
</g>
</g>
<!-- Node1&#45;&gt;Node2 -->
<g id="edge1_Node000001_Node000002" class="edge">
<title>Node1&#45;&gt;Node2</title>
<g id="a_edge1_Node000001_Node000002"><a xlink:title=" ">
<path fill="none" stroke="#63b8ff" d="M254.61,-254.31C243.52,-294.86 217.12,-370.75 166.75,-413 162.86,-416.27 158.54,-419.1 153.99,-421.57"/>
<polygon fill="#63b8ff" stroke="#63b8ff" points="257.93,-255.42 257.07,-244.86 251.16,-253.65 257.93,-255.42"/>
</a>
</g>
</g>
<!-- Node3 -->
<g id="Node000003" class="node">
<title>Node3</title>
<g id="a_Node000003"><a xlink:href="classn6705__ui_1_1device_1_1n6705_1_1N6705PowerAnalyzer.html#a7ecad1bbc8641917dd6274b9e90030dc" target="_top" xlink:title=" ">
<polygon fill="white" stroke="#666666" points="157,-404 9.75,-404 9.75,-360 157,-360 157,-404"/>
<text xml:space="preserve" text-anchor="start" x="17.75" y="-390.5" font-family="Helvetica,sans-Serif" font-size="10.00">n6705_ui.device.n6705.N6705</text>
<text xml:space="preserve" text-anchor="start" x="17.75" y="-378.5" font-family="Helvetica,sans-Serif" font-size="10.00">PowerAnalyzer.get_current</text>
<text xml:space="preserve" text-anchor="middle" x="83.38" y="-366.5" font-family="Helvetica,sans-Serif" font-size="10.00">_max_limit</text>
</a>
</g>
</g>
<!-- Node1&#45;&gt;Node3 -->
<g id="edge2_Node000001_Node000003" class="edge">
<title>Node1&#45;&gt;Node3</title>
<g id="a_edge2_Node000001_Node000003"><a xlink:title=" ">
<path fill="none" stroke="#63b8ff" d="M247.12,-253.24C231.07,-281.04 202.34,-324.49 166.75,-351 162.46,-354.19 157.8,-357.09 152.96,-359.72"/>
<polygon fill="#63b8ff" stroke="#63b8ff" points="250.05,-255.18 251.9,-244.75 243.95,-251.75 250.05,-255.18"/>
</a>
</g>
</g>
<!-- Node4 -->
<g id="Node000004" class="node">
<title>Node4</title>
<g id="a_Node000004"><a xlink:href="classn6705__ui_1_1device_1_1n6705_1_1N6705PowerAnalyzer.html#a9b388ae980d52c751e2815a9b5305a95" target="_top" xlink:title=" ">
<polygon fill="white" stroke="#666666" points="157,-342 9.75,-342 9.75,-298 157,-298 157,-342"/>
<text xml:space="preserve" text-anchor="start" x="17.75" y="-328.5" font-family="Helvetica,sans-Serif" font-size="10.00">n6705_ui.device.n6705.N6705</text>
<text xml:space="preserve" text-anchor="start" x="17.75" y="-316.5" font-family="Helvetica,sans-Serif" font-size="10.00">PowerAnalyzer.get_current</text>
<text xml:space="preserve" text-anchor="middle" x="83.38" y="-304.5" font-family="Helvetica,sans-Serif" font-size="10.00">_min_limit</text>
</a>
</g>
</g>
<!-- Node1&#45;&gt;Node4 -->
<g id="edge3_Node000001_Node000004" class="edge">
<title>Node1&#45;&gt;Node4</title>
<g id="a_edge3_Node000001_Node000004"><a xlink:title=" ">
<path fill="none" stroke="#63b8ff" d="M229.74,-250.15C211.87,-262.67 188.72,-277.83 166.75,-289 160.89,-291.98 154.68,-294.83 148.4,-297.52"/>
<polygon fill="#63b8ff" stroke="#63b8ff" points="231.74,-253.02 237.86,-244.38 227.68,-247.32 231.74,-253.02"/>
</a>
</g>
</g>
<!-- Node5 -->
<g id="Node000005" class="node">
<title>Node5</title>
<g id="a_Node000005"><a xlink:href="classn6705__ui_1_1device_1_1n6705_1_1N6705PowerAnalyzer.html#a601ac2311d0baa16a86f24cd0631e410" target="_top" xlink:title=" ">
<polygon fill="white" stroke="#666666" points="157,-280 9.75,-280 9.75,-236 157,-236 157,-280"/>
<text xml:space="preserve" text-anchor="start" x="17.75" y="-266.5" font-family="Helvetica,sans-Serif" font-size="10.00">n6705_ui.device.n6705.N6705</text>
<text xml:space="preserve" text-anchor="start" x="17.75" y="-254.5" font-family="Helvetica,sans-Serif" font-size="10.00">PowerAnalyzer.get_current</text>
<text xml:space="preserve" text-anchor="middle" x="83.38" y="-242.5" font-family="Helvetica,sans-Serif" font-size="10.00">_setpoint</text>
</a>
</g>
</g>
<!-- Node1&#45;&gt;Node5 -->
<g id="edge4_Node000001_Node000005" class="edge">
<title>Node1&#45;&gt;Node5</title>
<g id="a_edge4_Node000001_Node000005"><a xlink:title=" ">
<path fill="none" stroke="#63b8ff" d="M190.96,-239.31C179.94,-241.24 168.52,-243.24 157.44,-245.19"/>
<polygon fill="#63b8ff" stroke="#63b8ff" points="191.53,-242.76 200.78,-237.58 190.32,-235.86 191.53,-242.76"/>
</a>
</g>
</g>
<!-- Node6 -->
<g id="Node000006" class="node">
<title>Node6</title>
<g id="a_Node000006"><a xlink:href="classn6705__ui_1_1device_1_1n6705_1_1N6705PowerAnalyzer.html#ad12286a5465c73bae6790588f1442461" target="_top" xlink:title=" ">
<polygon fill="white" stroke="#666666" points="157,-218 9.75,-218 9.75,-174 157,-174 157,-218"/>
<text xml:space="preserve" text-anchor="start" x="17.75" y="-204.5" font-family="Helvetica,sans-Serif" font-size="10.00">n6705_ui.device.n6705.N6705</text>
<text xml:space="preserve" text-anchor="start" x="17.75" y="-192.5" font-family="Helvetica,sans-Serif" font-size="10.00">PowerAnalyzer.get_voltage</text>
<text xml:space="preserve" text-anchor="middle" x="83.38" y="-180.5" font-family="Helvetica,sans-Serif" font-size="10.00">_max_limit</text>
</a>
</g>
</g>
<!-- Node1&#45;&gt;Node6 -->
<g id="edge5_Node000001_Node000006" class="edge">
<title>Node1&#45;&gt;Node6</title>
<g id="a_edge5_Node000001_Node000006"><a xlink:title=" ">
<path fill="none" stroke="#63b8ff" d="M190.96,-214.69C179.94,-212.76 168.52,-210.76 157.44,-208.81"/>
<polygon fill="#63b8ff" stroke="#63b8ff" points="190.32,-218.14 200.78,-216.42 191.53,-211.24 190.32,-218.14"/>
</a>
</g>
</g>
<!-- Node7 -->
<g id="Node000007" class="node">
<title>Node7</title>
<g id="a_Node000007"><a xlink:href="classn6705__ui_1_1device_1_1n6705_1_1N6705PowerAnalyzer.html#a6e2ded2b2e96929be15e99199f2f6764" target="_top" xlink:title=" ">
<polygon fill="white" stroke="#666666" points="157,-156 9.75,-156 9.75,-112 157,-112 157,-156"/>
<text xml:space="preserve" text-anchor="start" x="17.75" y="-142.5" font-family="Helvetica,sans-Serif" font-size="10.00">n6705_ui.device.n6705.N6705</text>
<text xml:space="preserve" text-anchor="start" x="17.75" y="-130.5" font-family="Helvetica,sans-Serif" font-size="10.00">PowerAnalyzer.get_voltage</text>
<text xml:space="preserve" text-anchor="middle" x="83.38" y="-118.5" font-family="Helvetica,sans-Serif" font-size="10.00">_min_limit</text>
</a>
</g>
</g>
<!-- Node1&#45;&gt;Node7 -->
<g id="edge6_Node000001_Node000007" class="edge">
<title>Node1&#45;&gt;Node7</title>
<g id="a_edge6_Node000001_Node000007"><a xlink:title=" ">
<path fill="none" stroke="#63b8ff" d="M229.74,-203.85C211.87,-191.33 188.72,-176.17 166.75,-165 160.89,-162.02 154.68,-159.17 148.4,-156.48"/>
<polygon fill="#63b8ff" stroke="#63b8ff" points="227.68,-206.68 237.86,-209.62 231.74,-200.98 227.68,-206.68"/>
</a>
</g>
</g>
<!-- Node8 -->
<g id="Node000008" class="node">
<title>Node8</title>
<g id="a_Node000008"><a xlink:href="classn6705__ui_1_1device_1_1n6705_1_1N6705PowerAnalyzer.html#a7b28e5398c1a1781b5e0f71324f63d0f" target="_top" xlink:title=" ">
<polygon fill="white" stroke="#666666" points="157,-94 9.75,-94 9.75,-50 157,-50 157,-94"/>
<text xml:space="preserve" text-anchor="start" x="17.75" y="-80.5" font-family="Helvetica,sans-Serif" font-size="10.00">n6705_ui.device.n6705.N6705</text>
<text xml:space="preserve" text-anchor="start" x="17.75" y="-68.5" font-family="Helvetica,sans-Serif" font-size="10.00">PowerAnalyzer.get_voltage</text>
<text xml:space="preserve" text-anchor="middle" x="83.38" y="-56.5" font-family="Helvetica,sans-Serif" font-size="10.00">_setpoint</text>
</a>
</g>
</g>
<!-- Node1&#45;&gt;Node8 -->
<g id="edge7_Node000001_Node000008" class="edge">
<title>Node1&#45;&gt;Node8</title>
<g id="a_edge7_Node000001_Node000008"><a xlink:title=" ">
<path fill="none" stroke="#63b8ff" d="M247.12,-200.76C231.07,-172.96 202.34,-129.51 166.75,-103 162.46,-99.81 157.8,-96.91 152.96,-94.28"/>
<polygon fill="#63b8ff" stroke="#63b8ff" points="243.95,-202.25 251.9,-209.25 250.05,-198.82 243.95,-202.25"/>
</a>
</g>
</g>
<!-- Node9 -->
<g id="Node000009" class="node">
<title>Node9</title>
<g id="a_Node000009"><a xlink:href="classn6705__ui_1_1device_1_1n6705_1_1N6705PowerAnalyzer.html#a796574369e32d851d2c4f9e94093cafb" target="_top" xlink:title=" ">
<polygon fill="white" stroke="#666666" points="166.75,-32 0,-32 0,0 166.75,0 166.75,-32"/>
<text xml:space="preserve" text-anchor="start" x="8" y="-18.5" font-family="Helvetica,sans-Serif" font-size="10.00">n6705_ui.device.n6705.N6705</text>
<text xml:space="preserve" text-anchor="middle" x="83.38" y="-6.5" font-family="Helvetica,sans-Serif" font-size="10.00">PowerAnalyzer.measure_channels</text>
</a>
</g>
</g>
<!-- Node1&#45;&gt;Node9 -->
<g id="edge8_Node000001_Node000009" class="edge">
<title>Node1&#45;&gt;Node9</title>
<g id="a_edge8_Node000001_Node000009"><a xlink:title=" ">
<path fill="none" stroke="#63b8ff" d="M254.61,-199.69C243.52,-159.14 217.12,-83.25 166.75,-41 162.86,-37.73 158.54,-34.9 153.99,-32.43"/>
<polygon fill="#63b8ff" stroke="#63b8ff" points="251.16,-200.35 257.07,-209.14 257.93,-198.58 251.16,-200.35"/>
</a>
</g>
</g>
</g>
</svg>

<g id="navigator" transform="translate(0 0)" fill="#404254">
  <rect fill="#f2f5e9" fill-opacity="0.5" stroke="#606060" stroke-width=".5" x="0" y="0" width="60" height="60"/>
  <use id="zoomplus" xlink:href="#zoomPlus" x="17" y="9" onmousedown="handleZoom(evt,'in')"/>
  <use id="zoomminus" xlink:href="#zoomMin" x="42" y="9" onmousedown="handleZoom(evt,'out')"/>
  <use id="reset" xlink:href="#resetDef" x="30" y="36" onmousedown="handleReset()"/>
   <use id="arrowup" xlink:href="#arrowUp" x="0" y="0" onmousedown="handlePan(0,-1)"/>
  <use id="arrowright" xlink:href="#arrowRight" x="0" y="0" onmousedown="handlePan(1,0)"/>
  <use id="arrowdown" xlink:href="#arrowDown" x="0" y="0" onmousedown="handlePan(0,1)"/>
  <use id="arrowleft" xlink:href="#arrowLeft" x="0" y="0" onmousedown="handlePan(-1,0)"/>
</g>
<svg viewBox="0 0 15 15" width="100%" height="30px" preserveAspectRatio="xMaxYMin meet">
 <g id="arrow_out" transform="scale(0.3 0.3)">
  <a xlink:href="namespacen6705__ui_1_1device_1_1n6705_a315c0c70425129829d1cd4ca3bb0dd70_icgraph_org.svg" target="_base">
   <rect id="button" ry="5" rx="5" y="6" x="6" height="38" width="38"
        fill="#f2f5e9" fill-opacity="0.5" stroke="#606060" stroke-width="1.0"/>
   <path id="arrow"
     d="M 11.500037,31.436501 C 11.940474,20.09759 22.043105,11.32322 32.158766,21.979434 L 37.068811,17.246167 C 37.068811,17.246167 37.088388,32 37.088388,32 L 22.160133,31.978069 C 22.160133,31.978069 26.997745,27.140456 26.997745,27.140456 C 18.528582,18.264221 13.291696,25.230495 11.500037,31.436501 z"
     style="fill:#404040;"/>
  </a>
 </g>
</svg>

<style type='text/css'>
<![CDATA[
[data-mouse-over-selected='false'] { opacity: 0.7; }
[data-mouse-over-selected='true']  { opacity: 1.0; }
]]>
</style>
<script type="application/ecmascript"><![CDATA[
document.addEventListener('DOMContentLoaded', (event) => {
  highlightEdges();
  highlightAdjacentNodes();
});
]]></script>
</svg>
